<svg width="52" height="42" xmlns="http://www.w3.org/2000/svg">
  <path d="M36.558 12.6c-.212.26-.537.4-.865.4a1.13 1.13 0 01-.65-.201c-2.89-2.008-6.485-2.99-10.093-2.77-.59.038-1.112-.378-1.151-.93-.041-.55.411-1.028 1.006-1.064 4.136-.254 8.233.87 11.537 3.164.478.332.575.96.216 1.402M12.98 19c-1.194 0-2.163-.898-2.163-2 0-1.104.97-2 2.163-2 1.19 0 2.164.896 2.164 2 0 1.102-.974 2-2.164 2m37.858-4c-.6 0-1.082.446-1.082 1 0 1.326-.945 2.44-2.241 2.836C46.75 10.005 37.389 3 25.96 3c-1.577 0-3.186.146-4.796.436C19.554 1.3 16.9 0 14.062 0c-1.514 0-3.009.372-4.329 1.078a.983.983 0 00-.538.864c0 .358.203.688.538.866 1.517.812 2.62 2.174 3.048 3.724C8.511 9.115 5.606 12.867 4.663 17h-3.58C.482 17 0 17.447 0 18v8c0 .55.482 1 1.081 1h5.169c2.08 3.624 5.637 6.468 9.974 8.18V41c0 .55.483 1 1.082 1 .597 0 1.082-.45 1.082-1v-5.07a27 27 0 0015.142-.028V41c0 .55.483 1 1.082 1 .597 0 1.082-.45 1.082-1v-5.84c6.719-2.676 11.417-8.022 11.837-14.258 2.494-.444 4.387-2.47 4.387-4.902 0-.554-.484-1-1.081-1" fill="currentColor" fill-rule="evenodd"/>
</svg>
