<svg width="41" height="36" xmlns="http://www.w3.org/2000/svg">
  <path d="M41 8.44v26.563c0 .503-.386.932-.883.99L40 36H1.367c-.708 0-1.29-.495-1.36-1.125L0 34.747V8.44h41zm-19.084 3.467L13.03 23.31a.378.378 0 00-.033.422.451.451 0 00.395.222h6.554l-1.656 6.834c-.046.19.06.381.252.46.192.08.42.022.542-.135L27.97 19.71a.379.379 0 00.033-.423.452.452 0 00-.394-.22h-6.555l1.657-6.835a.4.4 0 00-.253-.46.469.469 0 00-.542.135zM19.133 0v5.934H.801L11.332.217c.215-.115.491-.19.788-.21L12.3 0h6.833zm2.732 0H28.7c.303 0 .594.055.832.153l.135.064 10.532 5.717H21.865V0H28.7z" fill="currentColor" fill-rule="evenodd"/>
</svg>
