<svg width="52" height="36" xmlns="http://www.w3.org/2000/svg">
  <path d="M17.333 24.5c3.285 0 5.959 2.466 5.959 5.5 0 3.032-2.674 5.5-5.959 5.5-3.287 0-5.958-2.468-5.958-5.5 0-3.034 2.671-5.5 5.958-5.5zm23.834 0c3.284 0 5.958 2.466 5.958 5.5 0 3.032-2.674 5.5-5.958 5.5-3.287 0-5.959-2.468-5.959-5.5 0-3.034 2.672-5.5 5.959-5.5zM7.583 30c.598 0 1.084.448 1.084 1 0 .55-.486 1-1.084 1h-6.5C.485 32 0 31.55 0 31c0-.552.485-1 1.083-1zM50.917 0C51.515 0 52 .448 52 1v28c0 .55-.485 1-1.083 1h-2.709c0-3.584-3.159-6.5-7.041-6.5-3.883 0-7.042 2.916-7.042 6.5h-9.75c0-3.584-3.159-6.5-7.042-6.5V1c0-.552.486-1 1.084-1zm-35.75 8c.598 0 1.083.448 1.083 1v14.584c-2.646.38-4.806 2.116-5.616 4.416h-9.55C.484 28 0 27.55 0 27V17c0-4.964 4.375-9 9.75-9zm-4.334 4H7.45c-1.72 0-3.116 1.288-3.116 2.874V18c0 .55.486 1 1.084 1 .598 0 1.083-.45 1.083-1v-3.126c0-.482.425-.874.949-.874h3.384c.598 0 1.084-.45 1.084-1 0-.552-.486-1-1.084-1z" fill="currentColor" fill-rule="evenodd"/>
</svg>
