<svg width="25" height="21" xmlns="http://www.w3.org/2000/svg">
  <path d="M19.526 17.232a1.75 1.75 0 011.747 1.749 1.75 1.75 0 01-1.747 1.749 1.75 1.75 0 01-1.75-1.75 1.75 1.75 0 011.75-1.748zm-9.993 0c.964 0 1.75.785 1.75 1.749 0 .964-.786 1.749-1.75 1.749a1.75 1.75 0 01-1.749-1.75 1.75 1.75 0 011.75-1.748zm5.998-9.243a.5.5 0 01.5.5v10.5a.5.5 0 01-.5.5h-3.813a2.19 2.19 0 00.064-.509 2.25 2.25 0 00-2.249-2.248 2.25 2.25 0 00-2.249 2.248c0 .176.024.345.062.51H5.531a.5.5 0 01-.5-.5l.004-7.998c2.17 0 4.107-1.224 5.162-3.003zm5.5 3c.172 0 .332.09.424.236l2.5 4c.01.015.013.031.021.047l.02.043a.52.52 0 01.034.17l.001.004v3.5a.5.5 0 01-.5.5h-1.82c.037-.164.062-.333.062-.509a2.25 2.25 0 00-2.248-2.248 2.25 2.25 0 00-2.249 2.248c0 .176.024.345.063.51h-.308a.5.5 0 01-.5-.5v-7.5a.5.5 0 01.5-.5zm-17.5 5.74a.5.5 0 010 1h-.5a.5.5 0 110-1zm0-2a.5.5 0 010 1h-1.5a.5.5 0 110-1zm17.223-2.74h-3.223v3h5.098l-1.875-3zm-17.247.74a.5.5 0 010 1h-.001L.5 13.727a.498.498 0 110-.998zM5.037 0c2.708 0 4.996 2.288 4.996 4.996 0 2.709-2.288 4.997-4.997 4.997C2.328 9.993.04 7.705.04 4.996.04 2.288 2.328 0 5.036 0zm-.5 1.994a.5.5 0 00-.5.5v2.998a.5.5 0 00.5.5h1.998a.5.5 0 000-1H5.037V2.494a.5.5 0 00-.5-.5z" fill="currentColor" fill-rule="evenodd"/>
</svg>
