<svg width="90" height="14" xmlns="http://www.w3.org/2000/svg">
  <path d="M8.442 12.924v-2.232h-5.94V7.578H7.56V5.346H2.502V2.34h5.94V.108H0v12.816h8.442zm11.682-4.392V.108H17.64v8.334c0 1.476-.882 2.358-2.232 2.358s-2.214-.882-2.214-2.358V.108h-2.502v8.424c0 2.718 2.088 4.5 4.716 4.5s4.716-1.782 4.716-4.5zm12.492 4.392l-2.862-5.526c1.242-.45 2.34-1.566 2.34-3.366 0-2.142-1.548-3.924-4.158-3.924h-5.022v12.816h2.502V7.812h1.8l2.502 5.112h2.898zm-3.024-8.892c0 .99-.72 1.692-1.818 1.692h-2.358V2.34h2.358c1.098 0 1.818.702 1.818 1.692zm14.13 1.92c-.007-1.926-.095-3.365-1.278-4.548C41.544.504 40.446 0 38.988 0s-2.574.504-3.474 1.404c-1.24 1.24-1.26 2.76-1.26 4.827l.004 1.386c.024 1.661.185 2.94 1.256 4.011.9.9 2.016 1.404 3.474 1.404 1.458 0 2.556-.504 3.456-1.404 1.183-1.183 1.271-2.622 1.278-4.548V5.952zm-2.502.564l-.006.755c-.03 1.842-.192 2.365-.624 2.845-.36.414-.918.684-1.602.684s-1.26-.27-1.62-.684l-.102-.122c-.354-.454-.48-1.034-.505-2.723l-.005-.755c0-2.466.126-3.06.612-3.6.36-.414.936-.684 1.62-.684s1.242.27 1.602.684l.102.122c.405.516.528 1.195.528 3.478zm14.256-2.412c0-2.178-1.584-3.996-4.23-3.996h-4.968v12.816h2.502V8.1h2.466c2.646 0 4.23-1.818 4.23-3.996zm-2.502 0c0 1.044-.72 1.746-1.854 1.746h-2.34V2.34h2.34c1.134 0 1.854.72 1.854 1.764zm13.644 1.848c-.007-1.926-.095-3.365-1.278-4.548C64.44.504 63.342 0 61.884 0S59.31.504 58.41 1.404c-1.24 1.24-1.26 2.76-1.26 4.827l.004 1.386c.024 1.661.185 2.94 1.256 4.011.9.9 2.016 1.404 3.474 1.404 1.458 0 2.556-.504 3.456-1.404 1.183-1.183 1.271-2.622 1.278-4.548V5.952zm-2.502.564l-.006.755c-.03 1.842-.192 2.365-.624 2.845-.36.414-.918.684-1.602.684s-1.26-.27-1.62-.684l-.102-.122c-.354-.454-.48-1.034-.505-2.723l-.005-.755c0-2.466.126-3.06.612-3.6.36-.414.936-.684 1.62-.684s1.242.27 1.602.684l.102.122c.405.516.528 1.195.528 3.478zm14.76 6.408l-2.862-5.526c1.242-.45 2.34-1.566 2.34-3.366 0-2.142-1.548-3.924-4.158-3.924h-5.022v12.816h2.502V7.812h1.8l2.502 5.112h2.898zm-3.024-8.892c0 .99-.72 1.692-1.818 1.692h-2.358V2.34h2.358c1.098 0 1.818.702 1.818 1.692zM89.19 2.34h-3.348v10.584H83.34V2.34h-3.348V.108h9.198V2.34z" fill="#FFF" fill-rule="nonzero"/>
</svg>
